<svg xmlns="http://www.w3.org/2000/svg" viewBox="0 0 128 128">
  <rect width="128" height="128" rx="26" fill="#004567" />
  <svg x="12" y="35" width="104" height="58" viewBox="360 390 1170 650" preserveAspectRatio="xMidYMid meet">
    <g fill="#ffffff">
      <g transform="translate(316.853405, 1027.185588)">
        <path
          d="M 193.34375 -108.890625 L 321.53125 -108.890625 C 366.6875 -108.890625 401.835938 -127.75 426.984375 -165.46875 C 452.140625 -203.195312 464.71875 -254.929688 464.71875 -320.671875 C 464.71875 -388.398438 453.140625 -438.84375 429.984375 -472 C 406.835938 -505.15625 371.539062 -521.734375 324.09375 -521.734375 L 193.34375 -521.734375 Z M 64.3125 -630.1875 L 342.53125 -630.1875 C 427.695312 -630.1875 491.71875 -602.535156 534.59375 -547.234375 C 577.46875 -491.929688 598.90625 -419.550781 598.90625 -330.09375 C 598.90625 -231.207031 576.109375 -151.46875 530.515625 -90.875 C 484.929688 -30.289062 420.554688 0 337.390625 0 L 64.3125 0 Z M 64.3125 -630.1875 "
        />
      </g>
      <g transform="translate(920.053648, 1027.185588)">
        <path
          d="M 573.609375 -630.1875 L 573.609375 0 L 442 0 L 442 -282.515625 L 195.921875 -282.515625 L 195.921875 0 L 64.3125 0 L 64.3125 -630.1875 L 195.921875 -630.1875 L 195.921875 -391.40625 L 442 -391.40625 L 442 -630.1875 Z M 573.609375 -630.1875 "
        />
      </g>
    </g>
  </svg>
</svg>
