<svg xmlns="http://www.w3.org/2000/svg" xmlns:xlink="http://www.w3.org/1999/xlink" width="2500" zoomAndPan="magnify" viewBox="0 0 1874.88 1349.999938" height="1800" preserveAspectRatio="xMidYMid meet" version="1.2"><defs><clipPath id="bf91adebb0"><path d="M 0 0.0429688 L 1874.761719 0.0429688 L 1874.761719 1349.957031 L 0 1349.957031 Z M 0 0.0429688 "/></clipPath><clipPath id="835aadec57"><path d="M 330.929688 628.222656 L 1519.585938 628.222656 L 1519.585938 786.148438 L 330.929688 786.148438 Z M 330.929688 628.222656 "/></clipPath></defs><g id="f40c5ff36c"><g clip-rule="nonzero" clip-path="url(#bf91adebb0)"><path style=" stroke:none;fill-rule:nonzero;fill:#ffffff;fill-opacity:1;" d="M 0 0.0429688 L 1874.878906 0.0429688 L 1874.878906 1349.957031 L 0 1349.957031 Z M 0 0.0429688 "/><path style=" stroke:none;fill-rule:nonzero;fill:#ffffff;fill-opacity:1;" d="M 0 0.0429688 L 1874.878906 0.0429688 L 1874.878906 1349.957031 L 0 1349.957031 Z M 0 0.0429688 "/><path style=" stroke:none;fill-rule:nonzero;fill:#ffffff;fill-opacity:1;" d="M 0 0.0429688 L 1877.222656 0.0429688 L 1877.222656 1349.957031 L 0 1349.957031 Z M 0 0.0429688 "/></g><g style="fill:#000000;fill-opacity:1;"><g transform="translate(316.853405, 1027.185588)"><path style="stroke:none" d="M 193.34375 -108.890625 L 321.53125 -108.890625 C 366.6875 -108.890625 401.835938 -127.75 426.984375 -165.46875 C 452.140625 -203.195312 464.71875 -254.929688 464.71875 -320.671875 C 464.71875 -388.398438 453.140625 -438.84375 429.984375 -472 C 406.835938 -505.15625 371.539062 -521.734375 324.09375 -521.734375 L 193.34375 -521.734375 Z M 64.3125 -630.1875 L 342.53125 -630.1875 C 427.695312 -630.1875 491.71875 -602.535156 534.59375 -547.234375 C 577.46875 -491.929688 598.90625 -419.550781 598.90625 -330.09375 C 598.90625 -231.207031 576.109375 -151.46875 530.515625 -90.875 C 484.929688 -30.289062 420.554688 0 337.390625 0 L 64.3125 0 Z M 64.3125 -630.1875 "/></g></g><g style="fill:#000000;fill-opacity:1;"><g transform="translate(920.053648, 1027.185588)"><path style="stroke:none" d="M 573.609375 -630.1875 L 573.609375 0 L 442 0 L 442 -282.515625 L 195.921875 -282.515625 L 195.921875 0 L 64.3125 0 L 64.3125 -630.1875 L 195.921875 -630.1875 L 195.921875 -391.40625 L 442 -391.40625 L 442 -630.1875 Z M 573.609375 -630.1875 "/></g></g><g clip-rule="nonzero" clip-path="url(#835aadec57)"><path style=" stroke:none;fill-rule:nonzero;fill:#ffffff;fill-opacity:1;" d="M 330.929688 628.222656 L 1519.675781 628.222656 L 1519.675781 786.148438 L 330.929688 786.148438 Z M 330.929688 628.222656 "/></g><g style="fill:#000000;fill-opacity:1;"><g transform="translate(612.448983, 749.457024)"><path style="stroke:none" d="M 23.4375 0 L 7.6875 0 L 7.6875 -75.359375 L 23.4375 -75.359375 Z M 23.4375 0 "/></g></g><g style="fill:#000000;fill-opacity:1;"><g transform="translate(671.075828, 749.457024)"><path style="stroke:none" d=""/></g></g><g style="fill:#000000;fill-opacity:1;"><g transform="translate(726.780497, 749.457024)"><path style="stroke:none" d="M 54.453125 -75.359375 L 69.109375 -75.359375 L 69.109375 0 L 53.375 0 L 22.609375 -53.78125 L 22.40625 -53.78125 L 22.40625 0 L 7.6875 0 L 7.6875 -75.359375 L 24.296875 -75.359375 L 54.25 -22.859375 L 54.453125 -22.859375 Z M 54.453125 -75.359375 "/></g></g><g style="fill:#000000;fill-opacity:1;"><g transform="translate(831.085569, 749.457024)"><path style="stroke:none" d=""/></g></g><g style="fill:#000000;fill-opacity:1;"><g transform="translate(886.790238, 749.457024)"><path style="stroke:none" d="M 23.4375 0 L 7.6875 0 L 7.6875 -75.359375 L 61.3125 -75.359375 L 61.3125 -62.03125 L 23.4375 -62.03125 L 23.4375 -45.0625 L 56.609375 -45.0625 L 56.609375 -31.6875 L 23.4375 -31.6875 Z M 23.4375 0 "/></g></g><g style="fill:#000000;fill-opacity:1;"><g transform="translate(977.919884, 749.457024)"><path style="stroke:none" d=""/></g></g><g style="fill:#000000;fill-opacity:1;"><g transform="translate(1033.624553, 749.457024)"><path style="stroke:none" d="M 41.578125 -42.1875 C 45.710938 -42.1875 48.78125 -42.972656 50.78125 -44.546875 C 52.78125 -46.117188 53.78125 -48.769531 53.78125 -52.5 C 53.78125 -55.570312 52.847656 -57.988281 50.984375 -59.75 C 49.117188 -61.507812 46.378906 -62.390625 42.765625 -62.390625 L 23.125 -62.390625 L 23.125 -42.1875 Z M 7.6875 -75.359375 L 45.78125 -75.359375 C 53.539062 -75.359375 59.4375 -73.28125 63.46875 -69.125 C 67.5 -64.976562 69.515625 -59.96875 69.515625 -54.09375 C 69.515625 -45.34375 65.640625 -39.359375 57.890625 -36.140625 C 61.472656 -34.773438 63.957031 -32.800781 65.34375 -30.21875 C 66.726562 -27.644531 67.421875 -22.988281 67.421875 -16.25 C 67.421875 -9.550781 67.664062 -5.613281 68.15625 -4.4375 C 68.65625 -3.257812 69.519531 -2.445312 70.75 -2 L 70.75 0 L 53.375 0 C 52.25 -3.382812 51.6875 -8.269531 51.6875 -14.65625 C 51.6875 -20.03125 51.328125 -23.492188 50.609375 -25.046875 C 49.890625 -26.597656 48.695312 -27.722656 47.03125 -28.421875 C 45.375 -29.128906 42.820312 -29.484375 39.375 -29.484375 L 23.125 -29.484375 L 23.125 0 L 7.6875 0 Z M 7.6875 -75.359375 "/></g></g><g style="fill:#000000;fill-opacity:1;"><g transform="translate(1135.725177, 749.457024)"><path style="stroke:none" d=""/></g></g><g style="fill:#000000;fill-opacity:1;"><g transform="translate(1191.429846, 749.457024)"><path style="stroke:none" d="M 27.328125 -28.5625 L 46.546875 -28.5625 L 37.171875 -58.390625 L 36.96875 -58.390625 Z M 17.890625 0 L 1.28125 0 L 28.140625 -75.359375 L 46.34375 -75.359375 L 72.90625 0 L 55.78125 0 L 50.96875 -15.53125 L 23.125 -15.53125 Z M 17.890625 0 "/></g></g></g></svg>